<?xml version="1.0"?>
<svg id="icon-quanjubofangqi-bofangliebiao" viewBox="0 0 1024 1024" width="18px" height="18px" xmlns="http://www.w3.org/2000/svg"><path d="M486.4 588.8L204.8 419.84c-40.96-30.72-102.4 0-102.4 51.2v337.92c0 51.2 61.44 76.8 102.4 51.2l276.48-168.96c40.96-25.6 40.96-76.8 5.12-102.4z m-307.2 194.56V496.64l240.64 143.36-240.64 143.36zM143.36 230.4h742.4c20.48 0 40.96-15.36 40.96-40.96s-20.48-35.84-46.08-35.84H143.36c-25.6 0-40.96 15.36-40.96 40.96s15.36 35.84 40.96 35.84zM880.64 358.4H450.56c-25.6 0-40.96 15.36-40.96 40.96s15.36 40.96 40.96 40.96h435.2c20.48 0 40.96-15.36 40.96-40.96s-20.48-40.96-46.08-40.96zM880.64 563.2h-225.28c-20.48 0-40.96 15.36-40.96 40.96s20.48 40.96 40.96 40.96h225.28c20.48 0 40.96-15.36 40.96-40.96s-20.48-40.96-40.96-40.96zM880.64 768h-327.68c-20.48 0-40.96 15.36-40.96 40.96s20.48 40.96 40.96 40.96h327.68c20.48 0 40.96-15.36 40.96-40.96s-20.48-40.96-40.96-40.96z" fill="#CCCCCC"></path></svg>
                   