<?xml version="1.0"?>
<svg id="icon-quanjubofangqi-dianzan" viewBox="0 0 1024 1024" width="18px" height="18px" xmlns="http://www.w3.org/2000/svg"><path d="M716.8 230.4c102.4 0 179.2 76.8 179.2 174.08 0 46.08-20.48 92.16-51.2 122.88l-312.32 302.08c-10.24 10.24-25.6 10.24-35.84 0l-317.44-312.32c-30.72-30.72-51.2-71.68-51.2-112.64 0-92.16 81.92-174.08 179.2-174.08 56.32 0 128 61.44 168.96 102.4 20.48 20.48 51.2 20.48 71.68 0 40.96-40.96 112.64-102.4 168.96-102.4M716.8 153.6c-128 0-204.8 97.28-204.8 97.28S435.2 153.6 307.2 153.6C168.96 153.6 51.2 266.24 51.2 404.48c0 61.44 25.6 122.88 76.8 168.96l368.64 363.52c5.12 5.12 10.24 10.24 20.48 10.24s10.24-5.12 15.36-10.24l363.52-353.28c51.2-46.08 76.8-112.64 76.8-179.2C972.8 266.24 860.16 153.6 716.8 153.6z" fill="#E8E8E8"></path></svg>
                    