<?xml version="1.0"?>
<svg id="icon-denglu-qiehuan-erweima" viewBox="0 0 1025 1024" width="100%" height="100%" xmlns="http://www.w3.org/2000/svg"><path d="M498.967273 409.6h27.927272c7.447273 0 13.032727-7.447273 13.032728-14.894545V14.894545c0-7.447273-5.585455-14.894545-13.032728-14.894545h-27.927272c-9.309091 0-14.894545 7.447273-14.894546 14.894545v379.81091c0 7.447273 5.585455 14.894545 14.894546 14.894545zM498.967273 1024h27.927272c7.447273 0 13.032727-7.447273 13.032728-14.894545V629.294545c0-7.447273-5.585455-14.894545-13.032728-14.894545h-27.927272c-7.447273 0-14.894545 7.447273-14.894546 14.894545v379.81091c0 7.447273 5.585455 14.894545 14.894546 14.894545zM966.283636 0H672.116364C640.465455 0 614.4 26.065455 614.4 57.716364v292.305454c0 31.650909 26.065455 57.716364 57.716364 57.716364h292.305454c31.650909 0 57.716364-26.065455 57.716364-57.716364V57.716364c1.861818-31.650909-24.203636-57.716364-55.854546-57.716364z m1.861819 323.956364c0 16.756364-13.032727 29.789091-29.789091 29.789091H700.043636c-16.756364 0-29.789091-13.032727-29.789091-29.789091V85.643636c0-16.756364 13.032727-29.789091 29.789091-29.789091h238.312728c16.756364 0 29.789091 13.032727 29.789091 29.789091v238.312728zM1009.105455 484.072727H14.894545c-9.309091 0-14.894545 5.585455-14.894545 14.894546v27.927272c0 7.447273 5.585455 13.032727 14.894545 13.032728h996.072728c7.447273 0 14.894545-5.585455 14.894545-13.032728v-27.927272c-1.861818-9.309091-7.447273-14.894545-16.756363-14.894546zM351.883636 0H57.716364C26.065455 0 0 26.065455 0 57.716364v292.305454C0 383.534545 26.065455 409.6 57.716364 409.6h292.305454c31.650909 0 57.716364-26.065455 57.716364-57.716364V57.716364c1.861818-31.650909-24.203636-57.716364-55.854546-57.716364z m1.861819 323.956364c0 16.756364-13.032727 29.789091-29.789091 29.789091H85.643636c-16.756364 0-29.789091-13.032727-29.789091-29.789091V85.643636C55.854545 68.887273 68.887273 55.854545 85.643636 55.854545h238.312728c16.756364 0 29.789091 13.032727 29.789091 29.789091v238.312728zM675.84 614.4h-27.927273c-7.447273 0-14.894545 7.447273-14.894545 14.894545v305.338182c0 9.309091 5.585455 14.894545 14.894545 14.894546h27.927273c7.447273 0 13.032727-7.447273 13.032727-14.894546V629.294545c0-7.447273-5.585455-14.894545-13.032727-14.894545zM822.923636 614.4h-27.927272c-7.447273 0-14.894545 5.585455-14.894546 13.032727v269.963637c0 7.447273 5.585455 13.032727 14.894546 13.032727h27.927272c7.447273 0 14.894545-5.585455 14.894546-13.032727V627.432727c0-7.447273-5.585455-13.032727-14.894546-13.032727zM973.730909 614.4h-27.927273c-7.447273 0-14.894545 7.447273-14.894545 14.894545v342.574546c0 7.447273 5.585455 14.894545 14.894545 14.894545h27.927273c7.447273 0 13.032727-7.447273 13.032727-14.894545V629.294545c0-7.447273-5.585455-14.894545-13.032727-14.894545zM351.883636 614.4H57.716364C26.065455 614.4 0 640.465455 0 672.116364v292.305454C0 997.934545 26.065455 1024 57.716364 1024h292.305454c31.650909 0 57.716364-26.065455 57.716364-57.716364V672.116364c1.861818-31.650909-24.203636-57.716364-55.854546-57.716364z m1.861819 323.956364c0 16.756364-13.032727 29.789091-29.789091 29.789091H85.643636c-16.756364 0-29.789091-13.032727-29.789091-29.789091V700.043636c0-16.756364 13.032727-29.789091 29.789091-29.789091h238.312728c16.756364 0 29.789091 13.032727 29.789091 29.789091v238.312728z" fill="#CCCCCC"></path></svg>
                                 