<?xml version="1.0"?>
<svg id="icon-quanjubofangqi-fenxiang" viewBox="0 0 1024 1024" width="18px" height="18px" xmlns="http://www.w3.org/2000/svg"><path d="M844.8 153.6h-256c-20.48 0-40.96 15.36-40.96 40.96s15.36 40.96 40.96 40.96h189.44l-343.04 343.04c-15.36 15.36-15.36 40.96 0 56.32s40.96 15.36 56.32 0l343.04-343.04v189.44c0 20.48 15.36 40.96 40.96 40.96s40.96-15.36 40.96-40.96v-256c-5.12-40.96-35.84-71.68-71.68-71.68z" fill="#E8E8E8"></path><path d="M870.4 609.28c-20.48 0-40.96 15.36-40.96 40.96v209.92c0 5.12-5.12 10.24-10.24 10.24H204.8c-5.12 0-10.24-5.12-10.24-10.24v-614.4c0-5.12 5.12-10.24 10.24-10.24h209.92c20.48 0 40.96-15.36 40.96-40.96S435.2 153.6 414.72 153.6H204.8c-51.2 0-92.16 40.96-92.16 92.16v614.4c0 51.2 40.96 92.16 92.16 92.16h614.4c51.2 0 92.16-40.96 92.16-92.16v-209.92c0-25.6-20.48-40.96-40.96-40.96z" fill="#E8E8E8"></path></svg>
                    