<?xml version="1.0"?>
<svg id="icon-denglu-guanbi" viewBox="0 0 1024 1024" width="100%" height="100%" xmlns="http://www.w3.org/2000/svg"><path d="M512 0C228.693333 0 0 228.693333 0 512s228.693333 512 512 512 512-228.693333 512-512S795.306667 0 512 0z m0 955.733333C266.24 955.733333 68.266667 757.76 68.266667 512S266.24 68.266667 512 68.266667s443.733333 197.973333 443.733333 443.733333-197.973333 443.733333-443.733333 443.733333z" fill="#E8E8E8"></path><path d="M774.826667 249.173333c-13.653333-13.653333-34.133333-13.653333-47.786667 0L512 464.213333 296.96 249.173333c-13.653333-13.653333-34.133333-13.653333-47.786667 0-13.653333 13.653333-13.653333 34.133333 0 47.786667l215.04 215.04-215.04 215.04c-13.653333 13.653333-13.653333 34.133333 0 47.786667s34.133333 13.653333 47.786667 0l215.04-215.04 215.04 215.04c13.653333 13.653333 34.133333 13.653333 47.786667 0 13.653333-13.653333 13.653333-34.133333 0-47.786667L559.786667 512l215.04-215.04c13.653333-13.653333 13.653333-34.133333 0-47.786667z" fill="#E8E8E8"></path></svg>
                