<?xml version="1.0"?>
<svg id="icon_QQ" viewBox="0 0 1024 1024" width="100%" height="100%" xmlns="http://www.w3.org/2000/svg">
<path d="M496.664776 1023.389786a390.409245 390.409245 0 0 1-412.134146-397.43789 619.15967 619.15967 0 0 1 76.67612-259.420873 31.948383 31.948383 0 0 1 58.785026 7.667612S256.412933 512.215652 320.3097 549.914744A540.566647 540.566647 0 0 1 564.395349 1.041517a31.948383 31.948383 0 0 1 30.670448 8.30658 31.309416 31.309416 0 0 1 9.584515 30.03148 665.165342 665.165342 0 0 0 60.062961 368.684345 153.35224 153.35224 0 0 1 106.068632-185.939592 31.948383 31.948383 0 0 1 44.727737 35.143222 235.140102 235.140102 0 0 0 41.532899 146.962564 364.850538 364.850538 0 0 1 59.423993 221.72178c0 230.02836-176.355076 397.437889-419.801758 397.43789" fill="#F77157"></path><path d="M504.332388 959.493019a222.999716 222.999716 0 0 0 215.332104-237.695972c-12.140386-159.741917-169.326432-308.621384-244.085649-370.601248a19.807998 19.807998 0 0 0-32.587351 16.61316 290.730289 290.730289 0 0 1-76.037153 210.85933C192.516166 767.802719 352.258083 959.493019 504.332388 959.493019" fill="#FFE133"></path>
</svg>