<?xml version="1.0"?>
 <svg id="icon-ic_follow" viewBox="0 0 1024 1024" width="100%" height="100%" xmlns="http://www.w3.org/2000/svg"><path d="M389.12 894.293333l-81.92 88.746667c-27.306667 27.306667-68.266667 27.306667-95.573333 6.826667-13.653333-6.826667-20.48-20.48-20.48-40.96l-20.48-122.88-109.226667-47.786667c-34.133333-13.653333-47.786667-54.613333-34.133333-88.746667 6.826667-13.653333 13.653333-27.306667 27.306666-34.133333l109.226667-54.613333 13.653333-122.88c6.826667-34.133333 40.96-61.44 75.093334-61.44 13.653333 0 27.306667 6.826667 40.96 20.48l88.746666 81.92 116.053334-27.306667c34.133333-6.826667 75.093333 13.653333 81.92 54.613333 0 13.653333 0 27.306667-6.826667 40.96l-54.613333 109.226667 61.44 102.4c20.48 34.133333 6.826667 75.093333-27.306667 95.573333-13.653333 6.826667-27.306667 13.653333-40.96 6.826667l-122.88-6.826667z" fill="#FF7D90"></path><path d="M1024 423.253333c6.826667-47.786667-27.306667-88.746667-75.093333-95.573333l-238.933334-34.133333-102.4-211.626667C600.746667 61.44 587.093333 47.786667 566.613333 40.96c-40.96-20.48-88.746667 0-109.226666 40.96L348.16 293.546667l-232.106667 34.133333c-20.48 0-40.96 13.653333-47.786666 27.306667-20.48 13.653333-27.306667 34.133333-27.306667 61.44 0 20.48 6.826667 40.96 27.306667 61.44l68.266666 68.266666 6.826667-68.266666c6.826667-54.613333 54.613333-95.573333 116.053333-88.746667 20.48 0 40.96 13.653333 61.44 27.306667l75.093334 75.093333 102.4-20.48c20.48-13.653333 47.786667-6.826667 68.266666 6.826667 27.306667 13.653333 40.96 40.96 47.786667 68.266666 6.826667 20.48 0 47.786667-6.826667 68.266667l-47.786666 95.573333 54.613333 88.746667c20.48 34.133333 13.653333 68.266667 0 102.4l129.706667 68.266667c13.653333 6.826667 27.306667 6.826667 40.96 6.826666h13.653333c47.786667-6.826667 75.093333-54.613333 68.266667-95.573333l-40.96-232.106667 170.666666-163.84c13.653333-27.306667 20.48-40.96 27.306667-61.44z" fill="#FF5C70"></path><path d="M757.76 416.426667c-6.826667 0-6.826667 0 0 0l-68.266667-6.826667c-34.133333-6.826667-61.44-27.306667-75.093333-54.613333l-27.306667-47.786667c-6.826667-13.653333 0-34.133333 13.653334-47.786667 13.653333-6.826667 34.133333 0 47.786666 13.653334l27.306667 47.786666c0 13.653333 13.653333 20.48 20.48 20.48l61.44 6.826667c20.48 0 34.133333 20.48 27.306667 40.96 0 20.48-13.653333 27.306667-27.306667 27.306667z" fill="#FFFFFF"></path></svg>
                            