<?xml version="1.0"?>
<svg id="icon-denglu-weixin" viewBox="0 0 1024 1024" width="100%" height="100%" xmlns="http://www.w3.org/2000/svg"><path d="M499.2 363.52m-33.28 0a33.28 33.28 0 1 0 66.56 0 33.28 33.28 0 1 0-66.56 0Z" fill="#CCCCCC"></path><path d="M332.8 363.52m-33.28 0a33.28 33.28 0 1 0 66.56 0 33.28 33.28 0 1 0-66.56 0Z" fill="#CCCCCC"></path><path d="M578.56 532.48m-28.16 0a28.16 28.16 0 1 0 56.32 0 28.16 28.16 0 1 0-56.32 0Z" fill="#CCCCCC"></path><path d="M716.8 532.48m-28.16 0a28.16 28.16 0 1 0 56.32 0 28.16 28.16 0 1 0-56.32 0Z" fill="#CCCCCC"></path><path d="M512 0C230.4 0 0 230.4 0 512s230.4 512 512 512 512-230.4 512-512S793.6 0 512 0z m-94.72 640c-30.72 0-58.88-5.12-84.48-12.8-5.12-2.56-10.24 0-15.36 2.56l-53.76 30.72c-12.8 7.68-17.92 2.56-15.36-10.24l12.8-43.52c2.56-5.12 0-12.8-5.12-15.36-53.76-38.4-87.04-94.72-87.04-158.72 0-115.2 112.64-207.36 250.88-207.36 125.44 0 227.84 76.8 245.76 176.64h-12.8c-125.44 0-227.84 84.48-227.84 189.44 0 17.92 2.56 35.84 7.68 51.2-5.12-2.56-10.24-2.56-15.36-2.56z m366.08 81.92c-2.56 2.56-5.12 7.68-5.12 10.24l10.24 38.4c2.56 10.24-2.56 15.36-12.8 10.24l-46.08-25.6c-2.56-2.56-7.68-2.56-12.8-2.56-23.04 7.68-46.08 10.24-71.68 10.24-115.2 0-207.36-76.8-207.36-174.08s92.16-174.08 207.36-174.08 207.36 76.8 207.36 174.08c5.12 53.76-25.6 99.84-69.12 133.12z" fill="#CCCCCC"></path></svg>
                            