<?xml version="1.0"?>
 <svg id="icon-ic_information" viewBox="0 0 1024 1024" width="100%" height="100%" xmlns="http://www.w3.org/2000/svg"><path d="M192 256c-38.4 0-64 25.6-64 64v64h64V256zM896 384V320c0-38.4-25.6-64-64-64v128h64z" fill="#76BAFF"></path><path d="M256 128c-38.4 0-64 25.6-64 64v64h64V128zM832 256V192c0-38.4-25.6-64-64-64v128h64z" fill="#B2D7FF"></path><path d="M768 256h64v128h-64z" fill="#399CFF"></path><path d="M768 256h64v128h-64z" fill="#5EADFF"></path><path d="M192 256h64v128H192z" fill="#399CFF"></path><path d="M192 256h64v128H192z" fill="#5EADFF"></path><path d="M704 64H320c-38.4 0-64 25.6-64 64h512c0-38.4-25.6-64-64-64z" fill="#B2D7FF"></path><path d="M256 128h512v128H256z" fill="#399CFF"></path><path d="M256 128h512v128H256z" fill="#83C0FF"></path><path d="M256 256h512v128H256z" fill="#399CFF"></path><path d="M256 256h512v128H256z" fill="#399CFF"></path><path d="M256 256h512v128H256z" fill="#50A7FF"></path><path d="M896 384H128c-38.4 0-64 25.6-64 64v448c0 38.4 25.6 64 64 64h768c38.4 0 64-25.6 64-64V448c0-38.4-25.6-64-64-64z" fill="#399CFF"></path></svg>
                            