<?xml version="1.0"?>
<svg id="icon-share_sina" viewBox="0 0 1024 1024" width="100%" height="100%" xmlns="http://www.w3.org/2000/svg"><path d="M460.8 593.92c-5.12-2.56-15.36 0-17.92 7.68-2.56 5.12-2.56 12.8 5.12 15.36 7.68 2.56 15.36 0 17.92-7.68 2.56-7.68 0-15.36-5.12-15.36z" fill="#EC5E5E"></path><path d="M435.2 481.28c-107.52 10.24-186.88 76.8-179.2 148.48 7.68 71.68 99.84 120.32 204.8 107.52 107.52-10.24 186.88-76.8 179.2-148.48-7.68-69.12-97.28-117.76-204.8-107.52z m92.16 166.4c-20.48 48.64-84.48 76.8-138.24 58.88-51.2-17.92-71.68-66.56-51.2-112.64 23.04-46.08 79.36-71.68 130.56-56.32 53.76 10.24 81.92 61.44 58.88 110.08z" fill="#EC5E5E"></path><path d="M419.84 609.28c-15.36-7.68-38.4 0-48.64 15.36-10.24 15.36-5.12 35.84 10.24 43.52 15.36 7.68 38.4 0 48.64-15.36 12.8-17.92 7.68-35.84-10.24-43.52z" fill="#EC5E5E"></path><path d="M512 0C230.4 0 0 230.4 0 512s230.4 512 512 512 512-230.4 512-512S793.6 0 512 0z m-51.2 775.68c-133.12 0-268.8-66.56-268.8-174.08 0-56.32 35.84-120.32 94.72-181.76 81.92-81.92 176.64-120.32 209.92-84.48 15.36 15.36 17.92 43.52 7.68 76.8-5.12 15.36 15.36 7.68 15.36 7.68 66.56-28.16 122.88-28.16 143.36 0 10.24 15.36 10.24 38.4 0 64-5.12 12.8 2.56 12.8 10.24 17.92 35.84 12.8 76.8 38.4 76.8 89.6 0 81.92-115.2 184.32-289.28 184.32z m240.64-343.04c5.12-12.8 2.56-28.16-7.68-40.96-10.24-10.24-25.6-15.36-38.4-12.8-10.24 2.56-23.04-5.12-25.6-15.36-2.56-12.8 5.12-23.04 15.36-25.6 28.16-5.12 58.88 2.56 79.36 25.6 20.48 23.04 25.6 53.76 17.92 81.92-2.56 10.24-15.36 17.92-25.6 12.8-12.8-2.56-17.92-12.8-15.36-25.6z m122.88 40.96c-5.12 12.8-17.92 20.48-30.72 15.36-12.8-5.12-20.48-17.92-15.36-30.72 12.8-40.96 5.12-87.04-25.6-120.32-30.72-33.28-74.24-46.08-115.2-38.4-12.8 2.56-25.6-5.12-28.16-17.92-2.56-12.8 5.12-25.6 17.92-30.72 56.32-12.8 120.32 5.12 161.28 53.76 43.52 48.64 53.76 112.64 35.84 168.96z" fill="#EC5E5E"></path></svg>
                                                       