<?xml version="1.0"?>
<svg id="icon_QQ" viewBox="0 0 1024 1024" width="100%" height="100%" xmlns="http://www.w3.org/2000/svg"><path d="M512 0C230.4 0 0 230.4 0 512s230.4 512 512 512 512-230.4 512-512S793.6 0 512 0z m263.68 724.48c-15.36 2.56-56.32-64-56.32-64 0 38.4-20.48 89.6-64 125.44 15.36 5.12 35.84 12.8 48.64 23.04 12.8 7.68 10.24 17.92 7.68 20.48-10.24 15.36-156.16 10.24-199.68 5.12-43.52 5.12-192 10.24-199.68-5.12-2.56-2.56-2.56-12.8 7.68-20.48 12.8-10.24 33.28-17.92 48.64-23.04-43.52-35.84-64-87.04-64-125.44 0 0-40.96 66.56-56.32 64-7.68 0-15.36-35.84 12.8-122.88 5.12-17.92 12.8-38.4 20.48-58.88l28.16-71.68v-23.04c0-120.32 58.88-243.2 202.24-243.2 143.36 0 202.24 122.88 202.24 243.2v23.04l28.16 71.68c7.68 20.48 15.36 40.96 20.48 58.88 28.16 87.04 17.92 122.88 12.8 122.88z" fill="#CCCCCC"></path></svg>
                            