<?xml version="1.0"?>
<svg id="icon-ic_play" viewBox="0 0 1024 1024" width="54px" height="54px" xmlns="http://www.w3.org/2000/svg"><path d="M512 512m-512 0a512 512 0 1 0 1024 0 512 512 0 1 0-1024 0Z" fill="#FFFFFF"></path><path d="M460.8 307.2l243.712 153.6c28.672 18.432 36.864 55.296 18.432 83.968-4.096 8.192-12.288 14.336-18.432 18.432L460.8 716.8c-28.672 18.432-67.584 10.24-83.968-18.432-6.144-10.24-10.24-20.48-10.24-32.768v-307.2c0-34.816 26.624-61.44 61.44-61.44 12.288 0 22.528 4.096 32.768 10.24z" fill="#F98368"></path></svg>