<?xml version="1.0"?>
<svg id="icon-ic_stop" viewBox="0 0 1024 1024" width="54px" height="54px" xmlns="http://www.w3.org/2000/svg"><path d="M512 512m-512 0a512 512 0 1 0 1024 0 512 512 0 1 0-1024 0Z" fill="#FFFFFF"></path><path d="M378.88 307.2c28.672 0 51.2 22.528 51.2 51.2v327.68c0 28.672-22.528 51.2-51.2 51.2S327.68 714.752 327.68 686.08v-327.68c0-28.672 22.528-51.2 51.2-51.2zM645.12 307.2c28.672 0 51.2 22.528 51.2 51.2v327.68c0 28.672-22.528 51.2-51.2 51.2S593.92 714.752 593.92 686.08v-327.68c0-28.672 22.528-51.2 51.2-51.2z" fill="#F98368"></path></svg>