<?xml version="1.0"?>
 <svg id="icon-btn_pyq_n" viewBox="0 0 1024 1024" width="100%" height="100%" xmlns="http://www.w3.org/2000/svg"><path d="M619.52 256z m25.6-133.12v291.84c-5.12-10.24-15.36-20.48-25.6-25.6l-10.24-10.24-35.84-35.84-15.36-15.36L358.4 133.12c35.84-15.36 71.68-20.48 107.52-25.6 15.36-5.12 30.72-5.12 46.08-5.12 35.84 0 71.68 5.12 107.52 15.36 5.12 0 15.36 5.12 25.6 5.12z m235.52 204.8l-204.8 204.8c0-10.24 5.12-25.6 0-35.84V133.12c30.72 15.36 66.56 30.72 92.16 56.32 10.24 10.24 25.6 20.48 35.84 30.72 25.6 25.6 46.08 56.32 66.56 87.04 0 5.12 5.12 15.36 10.24 20.48z m20.48 317.44h-291.84c10.24-5.12 20.48-15.36 25.6-25.6l10.24-10.24 35.84-35.84 15.36-15.36L890.88 358.4c15.36 35.84 20.48 66.56 25.6 107.52 5.12 15.36 5.12 30.72 5.12 46.08 0 35.84-5.12 71.68-15.36 107.52 0 5.12-5.12 15.36-5.12 25.6z m-209.92 235.52l-204.8-204.8c10.24 0 25.6 5.12 35.84 0h368.64c-15.36 30.72-30.72 66.56-56.32 92.16-10.24 10.24-20.48 25.6-30.72 35.84-25.6 25.6-56.32 46.08-87.04 66.56-10.24 0-15.36 5.12-25.6 10.24z m-312.32 20.48v-291.84c5.12 10.24 15.36 20.48 25.6 25.6l10.24 10.24 35.84 35.84 15.36 15.36 194.56 194.56c-35.84 15.36-71.68 20.48-107.52 25.6-10.24 5.12-25.6 5.12-40.96 5.12-35.84 0-71.68-5.12-107.52-15.36-5.12 0-15.36-5.12-25.6-5.12z m-235.52-209.92l204.8-204.8c0 10.24-5.12 25.6 0 35.84v363.52c-30.72-15.36-66.56-30.72-92.16-56.32-10.24-10.24-25.6-20.48-35.84-30.72-25.6-25.6-46.08-56.32-66.56-87.04l-10.24-20.48z m-20.48-312.32h291.84c-10.24 10.24-20.48 15.36-25.6 25.6-5.12 5.12-5.12 10.24-10.24 15.36l-35.84 35.84-15.36 15.36L133.12 665.6c-15.36-35.84-20.48-66.56-25.6-107.52-5.12-15.36-5.12-30.72-5.12-46.08 0-35.84 5.12-71.68 15.36-107.52 0-5.12 5.12-15.36 5.12-25.6z m204.8-230.4l204.8 204.8c-10.24 0-25.6-5.12-35.84 0H133.12c15.36-35.84 35.84-66.56 56.32-97.28 10.24-10.24 20.48-25.6 30.72-35.84 25.6-20.48 56.32-46.08 87.04-61.44 5.12-5.12 15.36-10.24 20.48-10.24z" fill="#CCCCCC"></path></svg>
                                        