<?xml version="1.0"?>
<svg id="icon-quanjubofangqi-bofang" viewBox="0 0 1024 1024" width="100%" height="100%" xmlns="http://www.w3.org/2000/svg"><path d="M512 1024C228.693333 1024 0 795.306667 0 512S228.693333 0 512 0s512 228.693333 512 512-228.693333 512-512 512z m0-989.866667C249.173333 34.133333 34.133333 249.173333 34.133333 512s215.04 477.866667 477.866667 477.866667 477.866667-215.04 477.866667-477.866667S774.826667 34.133333 512 34.133333z" fill="#FFFFFF"></path><path d="M341.333333 686.08V337.92c0-51.2 58.026667-81.92 102.4-51.2l279.893334 174.08c37.546667 23.893333 37.546667 78.506667 0 105.813333L443.733333 740.693333c-44.373333 27.306667-102.4-3.413333-102.4-54.613333" fill="#fff"></path></svg>
