<?xml version="1.0"?>
<svg id="icon_QQ" viewBox="0 0 1024 1024" width="100%" height="100%" xmlns="http://www.w3.org/2000/svg">
<path d="M864 640c-115.2 32-230.4 51.2-345.6 57.6-83.2 6.4-172.8 12.8-262.4 12.8H172.8c108.8 179.2 345.6 236.8 524.8 128 76.8-44.8 134.4-121.6 166.4-204.8v6.4z" fill="#FFD352"></path><path d="M275.2 646.4H185.6C6.4 633.6 0 588.8 0 576c-6.4-38.4 38.4-70.4 134.4-96 19.2-6.4 32 6.4 38.4 19.2 6.4 19.2-6.4 32-19.2 38.4-38.4 12.8-64 19.2-76.8 32 19.2 6.4 51.2 12.8 108.8 12.8 108.8 6.4 224 0 332.8-12.8 115.2-12.8 224-32 332.8-57.6 57.6-19.2 89.6-32 102.4-38.4-12.8 0-38.4-6.4-83.2 0-19.2 0-32-12.8-32-25.6 0-19.2 12.8-32 25.6-32 134.4-12.8 160 32 160 57.6 6.4 38.4-44.8 70.4-160 102.4-108.8 25.6-224 44.8-339.2 57.6-83.2 12.8-166.4 12.8-249.6 12.8z" fill="#FFA152"></path><path d="M185.6 582.4c108.8 6.4 224 0 332.8-12.8 115.2-12.8 224-32 332.8-57.6l44.8-12.8c-6.4-211.2-179.2-384-390.4-377.6C294.4 128 121.6 300.8 128 512c0 19.2 0 44.8 6.4 64l51.2 6.4z" fill="#FFD352"></path><path d="M774.4 422.4c-12.8 0-25.6-6.4-32-19.2-6.4-19.2-19.2-32-25.6-44.8-12.8-12.8-6.4-32 6.4-44.8 12.8-12.8 32-6.4 44.8 6.4 12.8 19.2 25.6 38.4 32 57.6 6.4 12.8 0 32-12.8 44.8h-12.8zM672 307.2c-6.4 0-12.8 0-19.2-6.4C614.4 268.8 563.2 256 512 256c-19.2 0-32-12.8-32-32S492.8 192 512 192c64 0 128 19.2 179.2 57.6 12.8 6.4 19.2 25.6 6.4 44.8-6.4 6.4-12.8 12.8-25.6 12.8z" fill="#FFFFFF"></path>
</svg>