<?xml version="1.0"?>
<svg id="icon-bodan" viewBox="0 0 1024 1024" width="100%" height="100%" xmlns="http://www.w3.org/2000/svg"><path d="M198.4 672c-89.6 6.4-160-64-166.4-153.6 6.4-89.6 76.8-153.6 166.4-153.6 32 0 64 6.4 89.6 25.6L320 211.2 352 64c6.4-19.2 25.6-38.4 44.8-38.4 76.8 0 198.4 32 198.4 236.8v12.8c6.4 25.6-12.8 44.8-38.4 38.4h-12.8l-134.4-32-44.8 268.8v6.4c-19.2 70.4-89.6 121.6-166.4 115.2z" fill="#FF6782"></path><path d="M198.4 339.2c25.6 0 44.8 6.4 70.4 12.8l25.6-140.8 19.2-83.2H256c-70.4 0-128 57.6-128 128v96c19.2-12.8 44.8-12.8 70.4-12.8zM768 128H608c19.2 38.4 25.6 83.2 25.6 140.8v12.8c-12.8 44.8-51.2 70.4-96 64L435.2 320l-44.8 236.8v6.4c-25.6 83.2-102.4 140.8-192 140.8-25.6 0-51.2 0-70.4-12.8V832c0 70.4 57.6 128 128 128h512c70.4 0 128-57.6 128-128V256c0-70.4-57.6-128-128-128z" fill="#FF8589"></path><path d="M768 672H512c-19.2 0-32-12.8-32-32s12.8-32 32-32h256c19.2 0 32 12.8 32 32s-12.8 32-32 32z" fill="#FFFFFF"></path><path d="M768 864H256c-19.2 0-32-12.8-32-32s12.8-32 32-32h512c19.2 0 32 12.8 32 32s-12.8 32-32 32z" fill="#FFFFFF"></path></svg>
