<?xml version="1.0"?>
<svg id="icon-quanjubofangqi-xiazai" viewBox="0 0 1024 1024" width="18px" height="18px" xmlns="http://www.w3.org/2000/svg"><path d="M896 614.4c-20.48 0-40.96 15.36-40.96 40.96v204.8c0 5.12-5.12 10.24-10.24 10.24h-665.6c-5.12 0-10.24-5.12-10.24-10.24v-204.8c0-20.48-15.36-40.96-40.96-40.96s-40.96 15.36-40.96 40.96v204.8c0 51.2 40.96 92.16 92.16 92.16h665.6c51.2 0 92.16-40.96 92.16-92.16v-204.8c-5.12-25.6-20.48-40.96-40.96-40.96z" fill="#E8E8E8"></path><path d="M455.68 680.96c30.72 30.72 81.92 30.72 112.64 0l230.4-230.4c15.36-15.36 15.36-35.84 0-46.08s-35.84-15.36-46.08 0l-199.68 199.68v-460.8c0-25.6-20.48-40.96-40.96-40.96s-40.96 15.36-40.96 40.96v460.8l-199.68-204.8c-15.36-15.36-35.84-15.36-46.08 0-15.36 15.36-15.36 35.84 0 46.08l230.4 235.52z" fill="#E8E8E8"></path></svg>
                    