<?xml version="1.0"?>
<svg id="icon-quanjubofangqi-xunhuan" viewBox="0 0 1024 1024" width="18px" height="18px" xmlns="http://www.w3.org/2000/svg"><path d="M716.8 793.6H256c-5.12 0-10.24-5.12-10.24-10.24V419.84l81.92 81.92c15.36 15.36 40.96 15.36 56.32 0 15.36-15.36 15.36-40.96 0-56.32L209.92 276.48 35.84 445.44c-15.36 15.36-15.36 40.96 0 56.32 15.36 15.36 40.96 15.36 56.32 0l76.8-76.8v353.28C163.84 829.44 204.8 870.4 256 870.4h460.8c20.48 0 40.96-15.36 40.96-40.96 0-20.48-20.48-35.84-40.96-35.84zM998.4 522.24c-15.36-15.36-40.96-15.36-56.32 0L870.4 599.04V245.76c0-51.2-40.96-92.16-92.16-92.16h-460.8c-20.48 0-35.84 15.36-35.84 40.96s15.36 40.96 40.96 40.96h460.8c5.12 0 10.24 5.12 10.24 10.24v363.52l-81.92-81.92c-15.36-15.36-40.96-15.36-56.32 0s-15.36 40.96 0 56.32l174.08 174.08 174.08-174.08c10.24-20.48 10.24-46.08-5.12-61.44z" fill="#CCCCCC"></path></svg>
                    