<?xml version="1.0"?>
<svg id="icon-quanjubofangqi-yinliang" viewBox="0 0 1024 1024" width="18px" height="18px" xmlns="http://www.w3.org/2000/svg"><path d="M215.04 317.44H102.4C51.2 317.44 10.24 358.4 10.24 409.6v204.8c0 51.2 40.96 92.16 92.16 92.16h117.76l266.24 209.92c51.2 40.96 122.88 5.12 122.88-61.44V168.96c0-61.44-71.68-97.28-122.88-61.44L215.04 317.44z m25.6 307.2H102.4c-5.12 0-10.24-5.12-10.24-10.24V409.6c0-5.12 5.12-10.24 10.24-10.24h143.36l245.76-189.44c15.36-15.36 40.96 0 40.96 20.48v568.32c0 20.48-25.6 30.72-40.96 20.48l-250.88-194.56zM732.16 634.88c-20.48 10.24-40.96 5.12-51.2-15.36-10.24-20.48-5.12-40.96 15.36-51.2 20.48-10.24 30.72-30.72 30.72-56.32s-10.24-46.08-30.72-56.32c-20.48-10.24-25.6-35.84-15.36-51.2s35.84-25.6 51.2-15.36c46.08 25.6 71.68 71.68 71.68 122.88 5.12 51.2-25.6 97.28-71.68 122.88z" fill="#CCCCCC"></path><path d="M721.92 798.72c-20.48 5.12-40.96-10.24-46.08-30.72-5.12-20.48 10.24-40.96 30.72-46.08 102.4-20.48 174.08-107.52 174.08-215.04 0-102.4-71.68-194.56-174.08-215.04-20.48-5.12-35.84-25.6-30.72-46.08 5.12-20.48 25.6-35.84 46.08-30.72 138.24 25.6 235.52 148.48 235.52 286.72 5.12 153.6-97.28 271.36-235.52 296.96z" fill="#CCCCCC"></path></svg>
                    